<svg width="16" height="16" viewBox="0 0 16 16" fill="none" xmlns="http://www.w3.org/2000/svg">
<g filter="url(#filter0_i_890_334)">
<path fill-rule="evenodd" clip-rule="evenodd" d="M10.6402 0.30551C8.90364 -0.101837 7.09636 -0.101837 5.35978 0.30551C2.85192 0.893772 0.893774 2.85192 0.305511 5.35977C-0.101837 7.09636 -0.101837 8.90365 0.305511 10.6402C0.893774 13.1481 2.85193 15.1062 5.35978 15.6945C7.09636 16.1018 8.90364 16.1018 10.6402 15.6945C13.1481 15.1062 15.1062 13.1481 15.6945 10.6402C16.1018 8.90364 16.1018 7.09636 15.6945 5.35978C15.1062 2.85192 13.1481 0.893772 10.6402 0.30551ZM7.1489 4.59722C7.38322 4.83153 7.38322 5.21143 7.1489 5.44575L5.44706 7.14759C5.21275 7.3819 4.83285 7.3819 4.59853 7.14759L3.74761 6.29667C3.5133 6.06235 3.5133 5.68246 3.74761 5.44814C3.98193 5.21383 4.36182 5.21383 4.59614 5.44814L5.0228 5.8748L6.30037 4.59722C6.53469 4.36291 6.91459 4.36291 7.1489 4.59722ZM8.25194 6.29787C8.25194 5.96649 8.52057 5.69787 8.85194 5.69787H11.8302C12.1615 5.69787 12.4302 5.96649 12.4302 6.29787C12.4302 6.62924 12.1615 6.89787 11.8302 6.89787H8.85194C8.52057 6.89787 8.25194 6.62924 8.25194 6.29787ZM7.1489 8.85182C7.38322 9.08614 7.38322 9.46604 7.1489 9.70035L5.44706 11.4022C5.21275 11.6365 4.83285 11.6365 4.59853 11.4022L3.74761 10.5513C3.5133 10.317 3.5133 9.93706 3.74761 9.70275C3.98193 9.46843 4.36182 9.46843 4.59614 9.70275L5.0228 10.1294L6.30037 8.85182C6.53469 8.61751 6.91459 8.61751 7.1489 8.85182ZM8.25194 10.5525C8.25194 10.2211 8.52057 9.95247 8.85194 9.95247H11.8302C12.1615 9.95247 12.4302 10.2211 12.4302 10.5525C12.4302 10.8838 12.1615 11.1525 11.8302 11.1525H8.85194C8.52057 11.1525 8.25194 10.8838 8.25194 10.5525Z" fill="#288994"/>
</g>
<defs>
<filter id="filter0_i_890_334" x="0" y="0" width="16" height="20" filterUnits="userSpaceOnUse" color-interpolation-filters="sRGB">
<feFlood flood-opacity="0" result="BackgroundImageFix"/>
<feBlend mode="normal" in="SourceGraphic" in2="BackgroundImageFix" result="shape"/>
<feColorMatrix in="SourceAlpha" type="matrix" values="0 0 0 0 0 0 0 0 0 0 0 0 0 0 0 0 0 0 127 0" result="hardAlpha"/>
<feOffset dy="4"/>
<feGaussianBlur stdDeviation="2"/>
<feComposite in2="hardAlpha" operator="arithmetic" k2="-1" k3="1"/>
<feColorMatrix type="matrix" values="0 0 0 0 0.574056 0 0 0 0 0.566226 0 0 0 0 0.566226 0 0 0 0.25 0"/>
<feBlend mode="normal" in2="shape" result="effect1_innerShadow_890_334"/>
</filter>
</defs>
</svg>
