<svg width="121" height="120" viewBox="0 0 121 120" fill="none" xmlns="http://www.w3.org/2000/svg">
<g opacity="0.6">
<path d="M55.0416 58.125V73.125C55.0416 74.6168 55.6343 76.0476 56.6891 77.1025C57.744 78.1574 59.1748 78.75 60.6666 78.75C62.1585 78.75 63.5892 78.1574 64.6441 77.1025C65.699 76.0476 66.2916 74.6168 66.2916 73.125V58.125H55.0416Z" fill="#FFD3B6"/>
<path d="M55.0416 68.5781C58.7164 69.6407 62.6169 69.6407 66.2916 68.5781V58.125H55.0416V68.5781Z" fill="#F9B995"/>
<path d="M103.792 95.625V118.125H17.5416V95.625C17.5416 89.6576 19.9122 83.9347 24.1317 79.7151C28.3513 75.4955 34.0743 73.125 40.0416 73.125H55.0416C55.0416 74.6168 55.6343 76.0476 56.6891 77.1025C57.744 78.1574 59.1748 78.75 60.6666 78.75C62.1585 78.75 63.5892 78.1574 64.6441 77.1025C65.699 76.0476 66.2916 74.6168 66.2916 73.125H81.2916C87.259 73.125 92.982 75.4955 97.2015 79.7151C101.421 83.9347 103.792 89.6576 103.792 95.625Z" fill="#FF938D"/>
<path d="M45.6666 112.5C39.6993 112.5 33.9763 110.129 29.7567 105.91C25.5372 101.69 23.1666 95.9673 23.1666 89.9999C23.1624 85.4073 24.5711 80.9246 27.2016 77.1599C24.2191 79.2279 21.7823 81.9881 20.0999 85.204C18.4175 88.4198 17.5397 91.9956 17.5416 95.6249V118.125H103.792V112.5H45.6666Z" fill="#F27875"/>
<path d="M17.5416 106.875H28.7916C29.7862 106.875 30.74 107.27 31.4433 107.973C32.1465 108.677 32.5416 109.63 32.5416 110.625V118.125H17.5416V106.875Z" fill="#F9B995"/>
<path d="M103.792 118.125H88.7916V110.625C88.7916 109.63 89.1867 108.677 89.89 107.973C90.5932 107.27 91.5471 106.875 92.5416 106.875H103.792V118.125Z" fill="#FFD3B6"/>
<path d="M103.792 112.5H88.7916V118.125H103.792V112.5Z" fill="#F9B995"/>
<path d="M40.0416 24.375H81.2916V45C81.2916 50.4701 79.1186 55.7161 75.2507 59.5841C71.3828 63.452 66.1367 65.625 60.6666 65.625C55.1965 65.625 49.9505 63.452 46.0825 59.5841C42.2146 55.7161 40.0416 50.4701 40.0416 45V24.375Z" fill="#FFD3B6"/>
<path d="M66.2916 60C63.5831 60 60.9011 59.4665 58.3988 58.43C55.8964 57.3935 53.6228 55.8743 51.7075 53.9591C47.8396 50.0911 45.6666 44.8451 45.6666 39.375V24.375H40.0416V45C40.0418 49.4206 41.4623 53.7243 44.0937 57.2764C46.7251 60.8285 50.4282 63.4412 54.6571 64.7293C58.8859 66.0173 63.4167 65.9126 67.5815 64.4305C71.7462 62.9484 75.3246 60.1674 77.7891 56.4975C74.3921 58.7863 70.3878 60.0061 66.2916 60Z" fill="#F9B995"/>
<path d="M62.5416 1.875H58.7916C52.8243 1.875 47.1013 4.24553 42.8817 8.4651C38.6622 12.6847 36.2916 18.4076 36.2916 24.375V33.75H40.0416V31.875H59.4348C60.4199 31.875 61.3954 31.681 62.3055 31.3039C63.2157 30.9269 64.0426 30.3742 64.7391 29.6775L68.1666 26.25L71.5941 29.6775C72.2906 30.3742 73.1176 30.9269 74.0277 31.3039C74.9378 31.681 75.9134 31.875 76.8985 31.875H81.2916V33.75H85.0416V24.375C85.0416 18.4076 82.6711 12.6847 78.4515 8.4651C74.232 4.24553 68.509 1.875 62.5416 1.875Z" fill="#7A838B"/>
<path d="M82.5235 26.2499C81.5384 26.2499 80.5628 26.0559 79.6527 25.6788C78.7426 25.3017 77.9156 24.7491 77.2191 24.0524L76.4429 23.2761C75.7397 22.5731 74.786 22.1782 73.7916 22.1782C72.7973 22.1782 71.8436 22.5731 71.1404 23.2761L70.3641 24.0524C69.6676 24.7491 68.8407 25.3017 67.9305 25.6788C67.0204 26.0559 66.0449 26.2499 65.0597 26.2499H49.4166C47.4275 26.2499 45.5198 25.4597 44.1133 24.0532C42.7068 22.6466 41.9166 20.739 41.9166 18.7499C41.9125 14.1576 43.3219 9.67528 45.9535 5.91174C42.9713 7.97984 40.5347 10.7397 38.852 13.9551C37.1694 17.1705 36.2908 20.7458 36.2916 24.3749V31.8749H59.4348C60.4199 31.8749 61.3954 31.6809 62.3055 31.3038C63.2157 30.9267 64.0426 30.3741 64.7391 29.6774L68.1666 26.2499L71.5941 29.6774C72.2906 30.3741 73.1176 30.9267 74.0277 31.3038C74.9378 31.6809 75.9134 31.8749 76.8985 31.8749H85.0416V26.2499H82.5235Z" fill="#5D6972"/>
<path d="M38.1666 31.875H40.0416V43.125H38.1666C36.6748 43.125 35.244 42.5324 34.1891 41.4775C33.1343 40.4226 32.5416 38.9918 32.5416 37.5C32.5416 36.0082 33.1343 34.5774 34.1891 33.5225C35.244 32.4676 36.6748 31.875 38.1666 31.875Z" fill="#F9B995"/>
<path d="M83.1666 43.125H81.2916V31.875H83.1666C84.6585 31.875 86.0892 32.4676 87.1441 33.5225C88.199 34.5774 88.7916 36.0082 88.7916 37.5C88.7916 38.9918 88.199 40.4226 87.1441 41.4775C86.0892 42.5324 84.6585 43.125 83.1666 43.125Z" fill="#FFD3B6"/>
<path d="M75.6666 46.875V59.1562C73.7387 61.1992 71.4137 62.8267 68.8344 63.9391C66.255 65.0515 63.4756 65.6253 60.6666 65.6253C57.8576 65.6253 55.0782 65.0515 52.4989 63.9391C49.9195 62.8267 47.5946 61.1992 45.6666 59.1562V46.875C50.2831 44.4129 55.4346 43.125 60.6666 43.125C65.8986 43.125 71.0502 44.4129 75.6666 46.875Z" fill="#98DEEA"/>
<path d="M66.2916 60C65.7654 60 65.2441 59.9806 64.7279 59.9419C61.0237 59.5965 57.5851 57.8699 55.0957 55.1053C52.6062 52.3407 51.2482 48.7406 51.2916 45.0206V44.5894C49.3585 45.1995 47.4774 45.9638 45.6666 46.875V59.1562C47.5946 61.1991 49.9195 62.8267 52.4989 63.9391C55.0782 65.0515 57.8576 65.6253 60.6666 65.6253C63.4756 65.6253 66.255 65.0515 68.8344 63.9391C71.4137 62.8267 73.7387 61.1991 75.6666 59.1562V57.7312C72.7664 59.2218 69.5525 59.9996 66.2916 60Z" fill="#82D0D8"/>
<path d="M51.2916 35.625C50.7943 35.625 50.3174 35.8225 49.9658 36.1742C49.6142 36.5258 49.4166 37.0027 49.4166 37.5V39.375C49.4166 39.8723 49.6142 40.3492 49.9658 40.7008C50.3174 41.0525 50.7943 41.25 51.2916 41.25C51.7889 41.25 52.2658 41.0525 52.6175 40.7008C52.9691 40.3492 53.1666 39.8723 53.1666 39.375V37.5C53.1666 37.0027 52.9691 36.5258 52.6175 36.1742C52.2658 35.8225 51.7889 35.625 51.2916 35.625Z" fill="#1F1F1F"/>
<path d="M68.1666 37.5V39.375C68.1666 39.8723 68.3642 40.3492 68.7158 40.7008C69.0674 41.0525 69.5443 41.25 70.0416 41.25C70.5389 41.25 71.0158 41.0525 71.3675 40.7008C71.7191 40.3492 71.9166 39.8723 71.9166 39.375V37.5C71.9166 37.0027 71.7191 36.5258 71.3675 36.1742C71.0158 35.8225 70.5389 35.625 70.0416 35.625C69.5443 35.625 69.0674 35.8225 68.7158 36.1742C68.3642 36.5258 68.1666 37.0027 68.1666 37.5Z" fill="#1F1F1F"/>
<path d="M68.1665 49.8243C67.9933 49.8241 67.821 49.7994 67.6546 49.7512C66.5036 49.4244 65.3323 49.1739 64.1484 49.0012C63.8996 48.9723 63.6591 48.8938 63.4411 48.7704C63.2231 48.6471 63.032 48.4813 62.8792 48.2828C62.7263 48.0844 62.6148 47.8573 62.5512 47.6151C62.4875 47.3728 62.4731 47.1203 62.5086 46.8723C62.5442 46.6244 62.6291 46.3861 62.7583 46.1715C62.8875 45.9569 63.0584 45.7704 63.2609 45.6229C63.4634 45.4755 63.6934 45.3701 63.9372 45.313C64.1811 45.2559 64.434 45.2483 64.6809 45.2905C66.0297 45.4854 67.3639 45.7704 68.6746 46.1437C69.1112 46.2658 69.4887 46.542 69.7373 46.9212C69.9859 47.3003 70.0887 47.7566 70.0267 48.2057C69.9647 48.6548 69.7421 49.0662 69.4001 49.3638C69.0581 49.6614 68.6198 49.825 68.1665 49.8243Z" fill="white"/>
</g>
</svg>
