<svg width="30" height="30" viewBox="0 0 30 30" fill="none" xmlns="http://www.w3.org/2000/svg">
<rect width="30" height="30" rx="8" fill="#1E40AD"/>
<path d="M23 15C23 15.1658 22.9342 15.3247 22.8169 15.4419C22.6997 15.5592 22.5408 15.625 22.375 15.625H16.125V21.875C16.125 22.0408 16.0592 22.1997 15.9419 22.3169C15.8247 22.4342 15.6658 22.5 15.5 22.5C15.3342 22.5 15.1753 22.4342 15.0581 22.3169C14.9408 22.1997 14.875 22.0408 14.875 21.875V15.625H8.625C8.45924 15.625 8.30027 15.5592 8.18306 15.4419C8.06585 15.3247 8 15.1658 8 15C8 14.8342 8.06585 14.6753 8.18306 14.5581C8.30027 14.4408 8.45924 14.375 8.625 14.375H14.875V8.125C14.875 7.95924 14.9408 7.80027 15.0581 7.68306C15.1753 7.56585 15.3342 7.5 15.5 7.5C15.6658 7.5 15.8247 7.56585 15.9419 7.68306C16.0592 7.80027 16.125 7.95924 16.125 8.125V14.375H22.375C22.5408 14.375 22.6997 14.4408 22.8169 14.5581C22.9342 14.6753 23 14.8342 23 15Z" fill="white"/>
</svg>
