<svg width="16" height="16" viewBox="0 0 16 16" fill="none" xmlns="http://www.w3.org/2000/svg">
<g filter="url(#filter0_i_890_310)">
<path d="M5.46079 2.10397C4.86983 1.96534 4.25481 1.96534 3.66385 2.10397C2.88986 2.28552 2.28552 2.88986 2.10397 3.66385C1.96534 4.25481 1.96534 4.86983 2.10397 5.4608C2.28552 6.23479 2.88986 6.83913 3.66385 7.02068C4.25481 7.1593 4.86983 7.1593 5.46079 7.02068C6.23479 6.83913 6.83913 6.23479 7.02068 5.46079C7.1593 4.86983 7.1593 4.25481 7.02068 3.66385C6.83913 2.88986 6.23479 2.28552 5.46079 2.10397Z" fill="#288994"/>
<path d="M5.46079 8.97932C4.86983 8.8407 4.25481 8.8407 3.66385 8.97932C2.88986 9.16087 2.28552 9.76521 2.10397 10.5392C1.96534 11.1302 1.96534 11.7452 2.10397 12.3361C2.28552 13.1101 2.88986 13.7145 3.66385 13.896C4.25481 14.0347 4.86983 14.0347 5.46079 13.896C6.23479 13.7145 6.83913 13.1101 7.02068 12.3361C7.1593 11.7452 7.1593 11.1302 7.02068 10.5392C6.83913 9.76521 6.23479 9.16087 5.46079 8.97932Z" fill="#288994"/>
<path d="M12.3361 2.10397C11.7452 1.96534 11.1302 1.96534 10.5392 2.10397C9.76521 2.28552 9.16087 2.88986 8.97932 3.66385C8.8407 4.25481 8.8407 4.86983 8.97932 5.4608C9.16087 6.23479 9.76521 6.83913 10.5392 7.02068C11.1302 7.1593 11.7452 7.1593 12.3361 7.02068C13.1101 6.83913 13.7145 6.23479 13.896 5.46079C14.0347 4.86983 14.0347 4.25481 13.896 3.66385C13.7145 2.88986 13.1101 2.28552 12.3361 2.10397Z" fill="#288994"/>
<path d="M12.3361 8.97932C11.7452 8.8407 11.1302 8.8407 10.5392 8.97932C9.76521 9.16087 9.16087 9.76521 8.97932 10.5392C8.8407 11.1302 8.8407 11.7452 8.97932 12.3361C9.16087 13.1101 9.76521 13.7145 10.5392 13.896C11.1302 14.0347 11.7452 14.0347 12.3361 13.896C13.1101 13.7145 13.7145 13.1101 13.896 12.3361C14.0347 11.7452 14.0347 11.1302 13.896 10.5392C13.7145 9.76521 13.1101 9.16087 12.3361 8.97932Z" fill="#288994"/>
</g>
<defs>
<filter id="filter0_i_890_310" x="2" y="2" width="12" height="16" filterUnits="userSpaceOnUse" color-interpolation-filters="sRGB">
<feFlood flood-opacity="0" result="BackgroundImageFix"/>
<feBlend mode="normal" in="SourceGraphic" in2="BackgroundImageFix" result="shape"/>
<feColorMatrix in="SourceAlpha" type="matrix" values="0 0 0 0 0 0 0 0 0 0 0 0 0 0 0 0 0 0 127 0" result="hardAlpha"/>
<feOffset dy="4"/>
<feGaussianBlur stdDeviation="2"/>
<feComposite in2="hardAlpha" operator="arithmetic" k2="-1" k3="1"/>
<feColorMatrix type="matrix" values="0 0 0 0 0.574056 0 0 0 0 0.566226 0 0 0 0 0.566226 0 0 0 0.25 0"/>
<feBlend mode="normal" in2="shape" result="effect1_innerShadow_890_310"/>
</filter>
</defs>
</svg>
