<svg width="30" height="30" viewBox="0 0 30 30" fill="none" xmlns="http://www.w3.org/2000/svg">
<rect width="30" height="30" rx="8" fill="#444444"/>
<path d="M11.3333 22.5C10.875 22.5 10.4826 22.3368 10.1562 22.0104C9.82984 21.684 9.66665 21.2917 9.66665 20.8333V10H8.83331V8.33333H13V7.5H18V8.33333H22.1666V10H21.3333V20.8333C21.3333 21.2917 21.1701 21.684 20.8437 22.0104C20.5173 22.3368 20.125 22.5 19.6666 22.5H11.3333ZM19.6666 10H11.3333V20.8333H19.6666V10ZM13 19.1667H14.6666V11.6667H13V19.1667ZM16.3333 19.1667H18V11.6667H16.3333V19.1667Z" fill="white"/>
</svg>
