<svg width="21" height="20" viewBox="0 0 21 20" fill="none" xmlns="http://www.w3.org/2000/svg">
<path d="M18.2594 5.73209L14.768 2.24146C14.6519 2.12536 14.5141 2.03326 14.3624 1.97042C14.2107 1.90759 14.0482 1.87524 13.884 1.87524C13.7198 1.87524 13.5572 1.90759 13.4056 1.97042C13.2539 2.03326 13.1161 2.12536 13 2.24146L3.36641 11.8751C3.24983 11.9907 3.15741 12.1284 3.09451 12.2801C3.0316 12.4318 2.99948 12.5944 3.00001 12.7586V16.2501C3.00001 16.5816 3.1317 16.8995 3.36612 17.1339C3.60054 17.3684 3.91849 17.5001 4.25001 17.5001H17.375C17.5408 17.5001 17.6997 17.4342 17.8169 17.317C17.9342 17.1998 18 17.0408 18 16.8751C18 16.7093 17.9342 16.5503 17.8169 16.4331C17.6997 16.3159 17.5408 16.2501 17.375 16.2501H9.50938L18.2594 7.50006C18.3755 7.38398 18.4676 7.24617 18.5304 7.09449C18.5933 6.94282 18.6256 6.78025 18.6256 6.61607C18.6256 6.45189 18.5933 6.28933 18.5304 6.13765C18.4676 5.98597 18.3755 5.84816 18.2594 5.73209ZM7.74141 16.2501H4.25001V12.7586L11.125 5.88365L14.6164 9.37506L7.74141 16.2501ZM15.5 8.49146L12.0094 5.00006L13.8844 3.12506L17.375 6.61646L15.5 8.49146Z" fill="white"/>
</svg>
