<svg width="16" height="16" viewBox="0 0 16 16" fill="none" xmlns="http://www.w3.org/2000/svg">
<path d="M8.17376 3.16529C8.12724 3.12079 8.06533 3.09595 8.00095 3.09595C7.93656 3.09595 7.87466 3.12079 7.82814 3.16529L2.07501 8.66123C2.05058 8.6846 2.03114 8.71269 2.01787 8.74379C2.00461 8.77489 1.99779 8.80835 1.99782 8.84217L1.99689 14.0003C1.99689 14.2655 2.10224 14.5199 2.28978 14.7074C2.47732 14.8949 2.73167 15.0003 2.99689 15.0003H6.00001C6.13262 15.0003 6.2598 14.9476 6.35356 14.8538C6.44733 14.7601 6.50001 14.6329 6.50001 14.5003V10.2503C6.50001 10.184 6.52635 10.1204 6.57323 10.0735C6.62012 10.0266 6.68371 10.0003 6.75001 10.0003H9.25001C9.31631 10.0003 9.3799 10.0266 9.42679 10.0735C9.47367 10.1204 9.50001 10.184 9.50001 10.2503V14.5003C9.50001 14.6329 9.55269 14.7601 9.64646 14.8538C9.74022 14.9476 9.8674 15.0003 10 15.0003H13.0019C13.2671 15.0003 13.5215 14.8949 13.709 14.7074C13.8965 14.5199 14.0019 14.2655 14.0019 14.0003V8.84217C14.0019 8.80835 13.9951 8.77489 13.9818 8.74379C13.9686 8.71269 13.9491 8.6846 13.9247 8.66123L8.17376 3.16529Z" fill="#288994"/>
<path d="M15.3413 7.63066L13.0038 5.39441V2.00098C13.0038 1.86837 12.9511 1.74119 12.8574 1.64742C12.7636 1.55365 12.6364 1.50098 12.5038 1.50098H11.0038C10.8712 1.50098 10.744 1.55365 10.6503 1.64742C10.5565 1.74119 10.5038 1.86837 10.5038 2.00098V3.00098L8.69381 1.27035C8.52444 1.0991 8.27256 1.00098 8.00038 1.00098C7.72913 1.00098 7.47788 1.0991 7.3085 1.27066L0.661628 7.63004C0.467253 7.81754 0.442878 8.12597 0.619753 8.3291C0.664169 8.38037 0.718553 8.42207 0.779596 8.45165C0.840639 8.48124 0.907064 8.4981 0.974828 8.50119C1.04259 8.50429 1.11028 8.49357 1.17377 8.46968C1.23725 8.44579 1.29522 8.40923 1.34413 8.36222L7.8285 2.16598C7.87503 2.12147 7.93693 2.09663 8.00131 2.09663C8.0657 2.09663 8.1276 2.12147 8.17413 2.16598L14.6591 8.36222C14.7547 8.45383 14.8826 8.50383 15.0149 8.50125C15.1473 8.49867 15.2732 8.44373 15.3651 8.34847C15.5569 8.14972 15.541 7.8216 15.3413 7.63066Z" fill="#288994"/>
</svg>
