<svg width="120" height="120" viewBox="0 0 120 120" fill="none" xmlns="http://www.w3.org/2000/svg">
<g opacity="0.6" clip-path="url(#clip0_944_5942)">
<path d="M86.2824 34.3415L84.5304 24.6383C75.6488 17.9452 64.8259 14.3328 53.7048 14.3495C25.3608 14.3495 2.38318 37.3271 2.38318 65.6711C2.38318 94.0151 25.3608 116.993 53.7048 116.993C82.0488 116.993 105.026 94.0151 105.026 65.6711C105.043 55.0489 101.748 44.6857 95.5992 36.0239L86.2824 34.3415Z" fill="#E42E44"/>
<path d="M81.7389 93.7057C97.2224 78.2221 97.2224 53.1184 81.7389 37.6349C66.2554 22.1514 41.1517 22.1514 25.6682 37.6349C10.1847 53.1184 10.1847 78.2222 25.6682 93.7057C41.1517 109.189 66.2554 109.189 81.7389 93.7057Z" fill="white"/>
<path d="M95.5992 36.0241L86.5872 34.3969C93.501 43.3551 97.2448 54.3553 97.2312 65.6713C97.2312 92.7024 76.3272 114.835 49.8072 116.83C51.0936 116.928 52.392 116.993 53.7048 116.993C82.0488 116.993 105.026 94.0153 105.026 65.6713C105.043 55.049 101.748 44.6858 95.5992 36.0241Z" fill="#BC2742"/>
<path d="M86.2056 33.9097L84.5256 24.6385C75.6453 17.9463 64.8243 14.334 53.7048 14.3497C52.392 14.3497 51.0936 14.4145 49.8072 14.5129C56.8873 15.0467 63.779 17.0466 70.045 20.3858C76.311 23.7249 81.8143 28.3303 86.2056 33.9097Z" fill="#BC2742"/>
<path d="M73.1485 85.1152C83.8876 74.376 83.8876 56.9645 73.1485 46.2254C62.4094 35.4863 44.9978 35.4863 34.2587 46.2254C23.5196 56.9645 23.5196 74.3761 34.2587 85.1152C44.9978 95.8543 62.4093 95.8543 73.1485 85.1152Z" fill="#E42E44"/>
<path d="M63.3615 75.3282C68.6955 69.9943 68.6955 61.3463 63.3615 56.0123C58.0276 50.6784 49.3796 50.6784 44.0456 56.0123C38.7117 61.3463 38.7117 69.9943 44.0456 75.3282C49.3796 80.6622 58.0276 80.6622 63.3615 75.3282Z" fill="white"/>
<path d="M86.2824 34.3416L83.652 19.776L100.423 3.0072L103.051 17.5728L86.2824 34.3416Z" fill="#49494A"/>
<path d="M86.2824 34.3416L100.848 36.972L117.617 20.2032L103.051 17.5728L86.2824 34.3416Z" fill="#49494A"/>
</g>
<defs>
<clipPath id="clip0_944_5942">
<rect width="120" height="120" fill="white"/>
</clipPath>
</defs>
</svg>
