<svg width="30" height="30" viewBox="0 0 30 30" fill="none" xmlns="http://www.w3.org/2000/svg">
<rect width="30" height="30" rx="8" fill="#C5C5C5"/>
<path d="M22.375 8.75H8.62502C8.2935 8.75 7.97556 8.8817 7.74114 9.11612C7.50672 9.35054 7.37502 9.66848 7.37502 10V22.5C7.37358 22.7384 7.44101 22.9721 7.56921 23.173C7.69741 23.374 7.88092 23.5336 8.09768 23.6328C8.26286 23.7097 8.44281 23.7497 8.62502 23.75C8.91846 23.7493 9.20217 23.6447 9.4258 23.4547L9.43284 23.4492L11.9844 21.25H22.375C22.7065 21.25 23.0245 21.1183 23.2589 20.8839C23.4933 20.6495 23.625 20.3315 23.625 20V10C23.625 9.66848 23.4933 9.35054 23.2589 9.11612C23.0245 8.8817 22.7065 8.75 22.375 8.75ZM22.375 20H11.75C11.6 20.0001 11.4549 20.0542 11.3414 20.1523L8.62502 22.5V10H22.375V20Z" fill="white"/>
</svg>
