<svg width="121" height="120" viewBox="0 0 121 120" fill="none" xmlns="http://www.w3.org/2000/svg">
<g opacity="0.6" clip-path="url(#clip0_935_2273)">
<path d="M75.6666 32.5C75.6666 49.2 77.1166 57 69.8916 65C66.8503 68.3797 62.8563 70.7587 58.4361 71.8236C54.0159 72.8884 49.3767 72.5891 45.1299 70.9651C40.8832 69.3411 37.2281 66.4686 34.6462 62.7261C32.0643 58.9836 30.6769 54.5467 30.6666 50V32.5C39.2416 33.375 57.0416 32.85 60.6666 25C62.4131 27.3287 64.6778 29.2187 67.2814 30.5205C69.8849 31.8223 72.7558 32.5 75.6666 32.5Z" fill="#F6CCAF"/>
<path d="M75.6666 32.5C75.6666 49.725 76.8416 55.8 71.3166 63.225C67.9582 65.644 63.9976 67.0897 59.8706 67.4031C55.7436 67.7166 51.6101 66.8856 47.9249 65.0017C44.2396 63.1177 41.1454 60.2537 38.9827 56.7248C36.82 53.1959 35.6726 49.1389 35.6666 45V32.75C43.1666 33.075 57.4916 31.9 60.6666 25C62.4131 27.3287 64.6778 29.2187 67.2814 30.5205C69.8849 31.8223 72.7558 32.5 75.6666 32.5Z" fill="#FFDEC7"/>
<path d="M30.6666 32.5V47.5H28.1666C26.1775 47.5 24.2698 46.7098 22.8633 45.3033C21.4568 43.8968 20.6666 41.9891 20.6666 40C20.6666 38.0109 21.4568 36.1032 22.8633 34.6967C24.2698 33.2902 26.1775 32.5 28.1666 32.5H30.6666Z" fill="#F6CCAF"/>
<path d="M85.6666 40C85.6666 41.9891 84.8764 43.8968 83.4699 45.3033C82.0634 46.7098 80.1557 47.5 78.1666 47.5H75.6666V32.5H78.1666C80.1557 32.5 82.0634 33.2902 83.4699 34.6967C84.8764 36.1032 85.6666 38.0109 85.6666 40Z" fill="#F6CCAF"/>
<path d="M85.6666 38.75C85.3684 40.5155 84.4483 42.1161 83.0728 43.2624C81.6972 44.4087 79.957 45.025 78.1666 45H75.6666V32.5H78.1666C79.957 32.475 81.6972 33.0913 83.0728 34.2376C84.4483 35.3839 85.3684 36.9845 85.6666 38.75Z" fill="#FFDEC7"/>
<path d="M68.5166 88.4001C59.9666 104.125 35.8416 98.15 35.6666 80.175L20.3166 85.7C16.5372 87.3414 13.2221 89.8915 10.6662 93.1235C8.11025 96.3555 6.39281 100.169 5.66664 104.225C2.84164 119.625 3.16664 116.725 3.16664 120H93.1666V117.5C89.5377 117.498 85.9525 116.707 82.6603 115.18C79.3682 113.653 76.4478 111.428 74.1022 108.659C71.7566 105.89 70.042 102.643 69.0774 99.1449C68.1128 95.6464 67.9215 91.9799 68.5166 88.4001Z" fill="#DB5669"/>
<path d="M78.1667 112.5H24.1667C22.5248 112.486 20.9057 112.114 19.4228 111.409C17.9398 110.704 16.6287 109.684 15.581 108.419C14.5334 107.155 13.7745 105.677 13.3575 104.089C12.9405 102.501 12.8754 100.841 13.1667 99.225C14.0286 94.552 16.1954 90.2184 19.4167 86.725C22.4667 84.7 20.0667 85.775 35.7417 80.175C35.7769 83.7148 36.8848 87.1606 38.919 90.0576C40.9533 92.9546 43.8183 95.1665 47.1358 96.4014C50.4533 97.6364 54.0673 97.8362 57.5007 96.9745C60.9341 96.1128 64.0255 94.2301 66.3667 91.5751C66.9862 91.3447 67.5878 91.069 68.1667 90.75C67.8812 94.9225 68.6471 99.0999 70.3941 102.9C72.1412 106.7 74.8136 110 78.1667 112.5Z" fill="#F26674"/>
<path d="M63.1666 70.15V77.5C63.1666 80.1522 62.1131 82.6957 60.2377 84.5711C58.3623 86.4465 55.8188 87.5 53.1666 87.5C50.5145 87.5 47.9709 86.4465 46.0956 84.5711C44.2202 82.6957 43.1666 80.1522 43.1666 77.5V70.15C46.2746 71.692 49.6971 72.4944 53.1666 72.4944C56.6361 72.4944 60.0586 71.692 63.1666 70.15Z" fill="#F6CCAF"/>
<path d="M43.1666 70.15V73.7C46.0038 74.7135 49.0165 75.143 52.0239 74.9625C55.0312 74.7821 57.971 73.9955 60.6666 72.65C60.6666 80 61.1416 82.45 58.8666 85.7C64.1166 82.05 63.1666 76.925 63.1666 70.15C60.0586 71.692 56.6361 72.4944 53.1666 72.4944C49.6971 72.4944 46.2746 71.692 43.1666 70.15Z" fill="#EDB996"/>
<path d="M71.2916 80.4C69.9098 82.8856 68.9708 85.5926 68.5166 88.4C66.6579 91.7959 63.7255 94.4796 60.1787 96.031C56.6318 97.5824 52.6707 97.9139 48.9153 96.9736C45.1599 96.0333 41.8223 93.8743 39.4249 90.8346C37.0276 87.7949 35.7059 84.0461 35.6666 80.175L43.1666 77.5C43.1666 80.1522 44.2202 82.6957 46.0956 84.5711C47.9709 86.4464 50.5145 87.5 53.1666 87.5C55.8188 87.5 58.3623 86.4464 60.2377 84.5711C62.1131 82.6957 63.1666 80.1522 63.1666 77.5L71.2916 80.4Z" fill="#EDEBF2"/>
<path d="M65.0917 78.2L63.1667 77.5C63.1619 79.5391 62.5338 81.528 61.3667 83.2C63.1183 81.982 64.4258 80.2269 65.0917 78.2Z" fill="#DAD7E5"/>
<path d="M66.5916 91.175C64.2987 93.9178 61.2208 95.8926 57.7719 96.8337C54.323 97.7747 50.6687 97.637 47.3004 96.4389C43.9322 95.2408 41.0117 93.0399 38.9318 90.1322C36.8519 87.2246 35.7124 83.7497 35.6666 80.175L38.1666 79.25C38.4703 82.3969 39.6207 85.4027 41.4958 87.9481C43.3708 90.4935 45.9003 92.4835 48.8157 93.7065C51.731 94.9296 54.9232 95.3401 58.0531 94.8943C61.183 94.4486 64.1336 93.1633 66.5916 91.175Z" fill="#DAD7E5"/>
<path d="M78.1666 32.5H75.6666C72.7558 32.5 69.8849 31.8223 67.2814 30.5206C64.6778 29.2188 62.4131 27.3287 60.6666 25C55.9416 34.45 35.0166 32.5 28.1666 32.5V27.5C28.1677 22.5563 29.6345 17.7238 32.3816 13.6136C35.1287 9.50333 39.0328 6.29985 43.6003 4.40809C48.1678 2.51634 53.1936 2.02127 58.0424 2.98546C62.8912 3.94965 67.3453 6.32981 70.8416 9.82504C78.5166 17.5 78.1666 25.5 78.1666 32.5Z" fill="#374F68"/>
<path d="M57.6166 28.425C53.8166 34.05 43.1666 35.2 35.6666 35.2501V32.7501C41.4666 33.0001 53.3916 32.125 57.6166 28.425Z" fill="#F6CCAF"/>
<path d="M60.6666 25C60.0978 26.0797 59.3252 27.0391 58.3916 27.825C60.1534 30.0582 62.3978 31.8638 64.9565 33.1064C67.5153 34.349 70.3221 34.9963 73.1666 35H75.6666V32.5C72.7558 32.5 69.8849 31.8223 67.2813 30.5205C64.6778 29.2187 62.4131 27.3287 60.6666 25Z" fill="#F6CCAF"/>
<path d="M78.1666 27.5C75.1728 27.7275 72.1637 27.3535 69.3166 26.4C65.8713 25.155 62.8648 22.9305 60.6666 20C57.0916 27.15 43.1666 27.9 35.6666 27.75C35.5967 21.7283 37.7028 15.8837 41.5976 11.2907C45.4925 6.6977 50.9144 3.66495 56.8666 2.75C62.7942 3.63705 68.2059 6.62418 72.1156 11.1671C76.0252 15.71 78.1727 21.5064 78.1666 27.5Z" fill="#425B72"/>
<path d="M118.167 92.5C118.155 97.0046 116.927 101.423 114.612 105.287C112.297 109.151 108.981 112.318 105.014 114.452C101.048 116.587 96.5778 117.61 92.0775 117.414C87.5772 117.218 83.2135 115.809 79.4477 113.337C75.682 110.865 72.6541 107.422 70.6841 103.371C68.7142 99.3199 67.8753 94.8119 68.2563 90.3234C68.6373 85.8349 70.224 81.5328 72.8486 77.8718C75.4732 74.2108 79.0381 71.3269 83.1667 69.525C86.976 67.8625 91.1398 67.1759 95.2812 67.5275C99.4227 67.879 103.411 69.2575 106.886 71.5384C110.36 73.8192 113.212 76.9304 115.181 80.5904C117.151 84.2504 118.177 88.3437 118.167 92.5Z" fill="#DAD7E5"/>
<path d="M71.2917 80.4C67.4167 87.5 70.0917 90 63.5667 93.1C64.4423 88.1572 66.7856 83.5925 70.2917 80L71.2917 80.4Z" fill="#DAD7E5"/>
<path d="M66.5916 91.175C65.6579 92.2846 64.5916 93.2753 63.4166 94.125C63.6166 92.25 63.3416 93.8 66.5916 91.175Z" fill="#C6C3D8"/>
<path d="M78.1667 112.5H68.1667C64.2226 107.26 62.5147 100.671 63.4167 94.175C65.4883 92.6417 67.1956 90.6697 68.4167 88.4C67.6755 92.9249 68.193 97.5665 69.9126 101.817C71.6323 106.068 74.4877 109.763 78.1667 112.5Z" fill="#DB5669"/>
<path d="M118.167 92.5C118.188 95.8426 117.535 99.1552 116.246 102.239C114.958 105.324 113.06 108.116 110.667 110.45C107.514 111.826 104.107 112.524 100.667 112.5C95.6754 112.525 90.7909 111.055 86.6421 108.28C82.4933 105.505 79.2702 101.552 77.3878 96.9289C75.5053 92.3061 75.0497 87.2257 76.0796 82.3418C77.1096 77.4578 79.5779 72.994 83.1667 69.525C86.9761 67.8625 91.1398 67.1759 95.2813 67.5275C99.4227 67.879 103.411 69.2575 106.886 71.5384C110.36 73.8192 113.212 76.9304 115.181 80.5904C117.151 84.2504 118.177 88.3437 118.167 92.5Z" fill="#EDEBF2"/>
<path d="M105.667 87.5H98.1666V80H88.1666V87.5H80.6666V97.5H88.1666V105H98.1666V97.5H105.667V87.5Z" fill="#DB5669"/>
<path d="M83.7666 115.65C74.4416 112.025 84.6166 112.5 68.1666 112.5C70.5919 115.678 73.7249 118.246 77.3166 120H93.1666V117.5C89.9449 117.48 86.7558 116.852 83.7666 115.65Z" fill="#C4455E"/>
<path d="M59.2916 62.075C59.8428 62.4369 60.5146 62.5663 61.1607 62.4352C61.8069 62.3041 62.3751 61.9231 62.7416 61.375C65.6666 57.15 53.1666 52.1 44.2916 57.925C43.8065 58.3158 43.4848 58.8736 43.3894 59.4891C43.294 60.1047 43.4318 60.7337 43.7759 61.2529C44.12 61.7722 44.6455 62.1443 45.2496 62.2963C45.8536 62.4484 46.4927 62.3695 47.0416 62.075C48.8831 60.9403 51.0036 60.3394 53.1666 60.3394C55.3296 60.3394 57.4502 60.9403 59.2916 62.075Z" fill="#231F20"/>
<path d="M48.1666 40C48.1666 39.337 47.9032 38.7011 47.4344 38.2322C46.9656 37.7634 46.3297 37.5 45.6666 37.5C45.0036 37.5 44.3677 37.7634 43.8989 38.2322C43.43 38.7011 43.1666 39.337 43.1666 40C43.1666 40.663 42.9032 41.2989 42.4344 41.7678C41.9656 42.2366 41.3297 42.5 40.6666 42.5C40.0036 42.5 39.3677 42.7634 38.8989 43.2322C38.43 43.7011 38.1666 44.337 38.1666 45C38.1666 49.775 48.1666 47.5 48.1666 40Z" fill="#231F20"/>
<path d="M65.6666 47.5C66.3297 47.5 66.9656 47.2366 67.4344 46.7678C67.9032 46.2989 68.1666 45.663 68.1666 45C68.1666 44.337 67.9032 43.7011 67.4344 43.2322C66.9656 42.7634 66.3297 42.5 65.6666 42.5C65.0036 42.5 64.3677 42.2366 63.8989 41.7678C63.43 41.2989 63.1666 40.663 63.1666 40C63.1666 39.337 62.9032 38.7011 62.4344 38.2322C61.9656 37.7634 61.3297 37.5 60.6666 37.5C55.8916 37.5 58.1666 47.5 65.6666 47.5Z" fill="#231F20"/>
<path d="M105.667 85H100.667V80C100.667 79.337 100.403 78.7011 99.9344 78.2322C99.4656 77.7634 98.8297 77.5 98.1666 77.5H88.1666C87.5036 77.5 86.8677 77.7634 86.3989 78.2322C85.93 78.7011 85.6666 79.337 85.6666 80V85H80.6666C80.0036 85 79.3677 85.2634 78.8989 85.7322C78.43 86.2011 78.1666 86.837 78.1666 87.5V97.5C78.1666 98.163 78.43 98.7989 78.8989 99.2678C79.3677 99.7366 80.0036 100 80.6666 100H85.6666V105C85.6666 105.663 85.93 106.299 86.3989 106.768C86.8677 107.237 87.5036 107.5 88.1666 107.5H98.1666C98.8297 107.5 99.4656 107.237 99.9344 106.768C100.403 106.299 100.667 105.663 100.667 105V100H105.667C106.33 100 106.966 99.7366 107.434 99.2678C107.903 98.7989 108.167 98.163 108.167 97.5V87.5C108.167 86.837 107.903 86.2011 107.434 85.7322C106.966 85.2634 106.33 85 105.667 85ZM103.167 95H98.1666C97.5036 95 96.8677 95.2634 96.3989 95.7322C95.93 96.2011 95.6666 96.837 95.6666 97.5V102.5H90.6666V97.5C90.6666 96.837 90.4032 96.2011 89.9344 95.7322C89.4656 95.2634 88.8297 95 88.1666 95H83.1666V90H88.1666C88.8297 90 89.4656 89.7366 89.9344 89.2678C90.4032 88.7989 90.6666 88.163 90.6666 87.5V82.5H95.6666V87.5C95.6666 88.163 95.93 88.7989 96.3989 89.2678C96.8677 89.7366 97.5036 90 98.1666 90H103.167V95Z" fill="#231F20"/>
</g>
<defs>
<clipPath id="clip0_935_2273">
<rect width="120" height="120" fill="white" transform="translate(0.666626)"/>
</clipPath>
</defs>
</svg>
