<svg width="30" height="30" viewBox="0 0 30 30" fill="none" xmlns="http://www.w3.org/2000/svg">
<rect width="30" height="30" rx="8" fill="#288994"/>
<path d="M24.8211 14.7469C24.7937 14.6852 24.132 13.2172 22.6609 11.7461C20.7008 9.78594 18.225 8.75 15.5 8.75C12.775 8.75 10.2992 9.78594 8.33905 11.7461C6.86796 13.2172 6.20312 14.6875 6.1789 14.7469C6.14336 14.8268 6.125 14.9133 6.125 15.0008C6.125 15.0883 6.14336 15.1748 6.1789 15.2547C6.20624 15.3164 6.86796 16.7836 8.33905 18.2547C10.2992 20.2141 12.775 21.25 15.5 21.25C18.225 21.25 20.7008 20.2141 22.6609 18.2547C24.132 16.7836 24.7937 15.3164 24.8211 15.2547C24.8566 15.1748 24.875 15.0883 24.875 15.0008C24.875 14.9133 24.8566 14.8268 24.8211 14.7469ZM15.5 20C13.0953 20 10.9945 19.1258 9.25546 17.4023C8.5419 16.6927 7.93483 15.8836 7.45312 15C7.9347 14.1164 8.54179 13.3072 9.25546 12.5977C10.9945 10.8742 13.0953 10 15.5 10C17.9047 10 20.0055 10.8742 21.7445 12.5977C22.4595 13.307 23.0679 14.1162 23.5508 15C22.9875 16.0516 20.5336 20 15.5 20ZM15.5 11.25C14.7583 11.25 14.0333 11.4699 13.4166 11.882C12.7999 12.294 12.3193 12.8797 12.0354 13.5649C11.7516 14.2502 11.6774 15.0042 11.822 15.7316C11.9667 16.459 12.3239 17.1272 12.8483 17.6517C13.3728 18.1761 14.041 18.5333 14.7684 18.6779C15.4958 18.8226 16.2498 18.7484 16.9351 18.4645C17.6203 18.1807 18.2059 17.7001 18.618 17.0834C19.0301 16.4667 19.25 15.7417 19.25 15C19.249 14.0058 18.8535 13.0525 18.1505 12.3495C17.4475 11.6465 16.4942 11.251 15.5 11.25ZM15.5 17.5C15.0055 17.5 14.5222 17.3534 14.1111 17.0787C13.6999 16.804 13.3795 16.4135 13.1903 15.9567C13.0011 15.4999 12.9516 14.9972 13.048 14.5123C13.1445 14.0273 13.3826 13.5819 13.7322 13.2322C14.0819 12.8826 14.5273 12.6445 15.0123 12.548C15.4972 12.4516 15.9999 12.5011 16.4567 12.6903C16.9135 12.8795 17.304 13.2 17.5787 13.6111C17.8534 14.0222 18 14.5055 18 15C18 15.663 17.7366 16.2989 17.2678 16.7678C16.7989 17.2366 16.163 17.5 15.5 17.5Z" fill="white"/>
</svg>
