<svg width="96" height="96" viewBox="0 0 96 96" fill="none" xmlns="http://www.w3.org/2000/svg">
<g clip-path="url(#clip0_935_1488)">
<path d="M48 96C74.5097 96 96 74.5097 96 48C96 21.4903 74.5097 0 48 0C21.4903 0 0 21.4903 0 48C0 74.5097 21.4903 96 48 96Z" fill="#31AF91"/>
<path d="M40.725 72.8999L18.6 50.7749C18.3 50.4749 18.3 50.025 18.6 49.725L24.975 43.3499C25.275 43.0499 25.725 43.0499 26.025 43.3499L41.25 58.5749L69.9 29.925C70.2 29.625 70.65 29.625 70.95 29.925L77.325 36.3C77.625 36.6 77.625 37.0499 77.325 37.3499L41.775 72.8999C41.475 73.1999 41.025 73.1999 40.725 72.8999Z" fill="white"/>
</g>
<defs>
<clipPath id="clip0_935_1488">
<rect width="96" height="96" fill="white"/>
</clipPath>
</defs>
</svg>
